<?xml version="1.0" standalone="no"?>
<!DOCTYPE svg PUBLIC "-//W3C//DTD SVG 20010904//EN"
 "http://www.w3.org/TR/2001/REC-SVG-20010904/DTD/svg10.dtd">
<svg version="1.0" xmlns="http://www.w3.org/2000/svg"
 width="700.000000pt" height="700.000000pt" viewBox="0 0 700.000000 700.000000"
 preserveAspectRatio="xMidYMid meet">
<metadata>
Created by potrace 1.11, written by Peter Selinger 2001-2013
</metadata>
<g transform="translate(0.000000,700.000000) scale(0.100000,-0.100000)"
fill="#000000" stroke="none">
<path d="M3310 6994 c-389 -33 -616 -77 -910 -174 -851 -280 -1572 -890 -1990
-1682 -177 -335 -300 -696 -359 -1058 -36 -219 -45 -339 -45 -580 0 -241 9
-361 45 -580 119 -724 474 -1402 1005 -1920 578 -563 1275 -889 2099 -982 142
-16 548 -16 690 0 478 54 889 178 1292 391 302 160 552 343 807 591 531 518
886 1196 1005 1920 36 219 45 339 45 580 0 241 -9 361 -45 580 -119 724 -474
1402 -1005 1920 -566 552 -1259 882 -2049 975 -126 15 -493 27 -585 19z m-140
-1734 c0 -193 -3 -250 -12 -250 -278 -9 -363 -39 -397 -140 -7 -20 -16 -145
-22 -285 -20 -524 -34 -629 -107 -786 -44 -96 -111 -174 -208 -246 -59 -43
-77 -63 -56 -63 16 0 142 -108 182 -155 23 -28 57 -81 77 -119 73 -144 96
-306 113 -786 5 -154 13 -270 21 -293 27 -80 129 -137 248 -137 31 0 80 -3
109 -6 l52 -7 0 -248 0 -249 -117 0 c-130 1 -288 14 -373 31 -99 21 -231 91
-302 162 -132 132 -178 299 -178 649 0 224 -18 517 -35 583 -38 143 -100 235
-191 279 -47 23 -170 54 -221 56 -10 0 -13 57 -13 249 l0 249 28 6 c15 2 53 8
84 11 74 8 168 55 211 105 42 49 82 131 102 207 18 66 35 330 35 543 1 462 67
650 275 775 131 78 292 111 558 114 l137 1 0 -250z m1001 239 c244 -25 395
-95 495 -231 104 -141 122 -228 134 -653 12 -406 23 -517 58 -607 63 -162 152
-226 355 -253 l47 -6 0 -249 0 -248 -27 -6 c-16 -2 -54 -8 -85 -11 -185 -20
-307 -178 -333 -430 -3 -33 -10 -208 -15 -390 -11 -406 -23 -488 -83 -609
-106 -214 -354 -316 -769 -316 l-118 0 0 249 0 248 53 7 c28 3 77 6 108 6 112
0 205 46 240 116 17 37 21 74 29 285 22 546 37 653 111 807 44 91 135 196 219
253 27 19 50 37 50 40 0 4 -18 18 -40 33 -22 14 -71 55 -109 91 -55 52 -78 85
-115 158 -82 163 -97 266 -116 777 -5 156 -14 290 -21 310 -34 101 -119 131
-396 140 -10 0 -13 57 -13 250 l0 250 119 0 c65 0 165 -5 222 -11z"/>
</g>
</svg>
